<?xml version="1.0" encoding="utf-8"?>
<!-- Generator: Adobe Illustrator 24.0.1, SVG Export Plug-In . SVG Version: 6.00 Build 0)  -->
<svg version="1.1" id="Layer_1" xmlns="http://www.w3.org/2000/svg" xmlns:xlink="http://www.w3.org/1999/xlink" x="0px" y="0px"
	 viewBox="0 0 40.5 33.1" style="enable-background:new 0 0 40.5 33.1;" xml:space="preserve">
<style type="text/css">
	.st0{fill:none;stroke:#000333;stroke-width:1.5;stroke-linecap:round;}
	.st1{fill:#000333;}
	.st2{fill:#83B633;}
	.st3{fill:#FFFFFF;stroke:#FFFFFF;stroke-width:0.25;}
	.st4{fill:none;stroke:#83B633;stroke-linecap:round;stroke-miterlimit:10;}
	.st5{fill:none;stroke:#000333;stroke-linecap:round;}
</style>
<title>apm-icon</title>
<rect x="1.7" y="1.9" class="st0" width="26.7" height="26"/>
<line class="st0" x1="1.7" y1="7.8" x2="28.4" y2="7.8"/>
<circle class="st1" cx="4.5" cy="4.7" r="1"/>
<circle class="st1" cx="8" cy="4.7" r="1"/>
<circle class="st1" cx="11.5" cy="4.7" r="1"/>
<circle class="st2" cx="31.8" cy="24.3" r="8.2"/>
<g>
	<path class="st3" d="M30.3,18.7C30.2,18.7,30.2,18.7,30.3,18.7C30.2,18.7,30.2,18.7,30.3,18.7c-0.9,0-1.5,0.6-1.6,1.5
		c-0.1,0-0.2,0-0.3,0c-0.9,0-1.6,0.7-1.6,1.6c0,0.4,0.1,0.8,0.4,1.1c-0.1,0-0.2,0.1-0.3,0.1c-0.6,0.2-1,0.8-1,1.5c0,0,0,0,0,0
		c0,0,0,0,0,0c0,0.8,0.5,1.4,1.2,1.6c-0.3,0.3-0.4,0.7-0.4,1.1c0,0.9,0.7,1.6,1.6,1.6c0.1,0,0.2,0,0.3,0c0,0,0,0,0,0
		c0,0.9,0.7,1.6,1.6,1.6s1.6-0.7,1.6-1.6v-8.2C31.8,19.5,31.1,18.7,30.3,18.7z M31.5,28.7c0,0.7-0.5,1.3-1.2,1.3S29,29.4,29,28.7
		c0-0.1,0-0.1,0-0.2c0,0,0,0,0-0.1c0.5-0.3,0.8-0.8,0.8-1.4c0-0.1-0.1-0.2-0.2-0.2c-0.1,0-0.2,0.1-0.2,0.2c0,0.7-0.5,1.2-1.2,1.2
		s-1.2-0.5-1.2-1.2c0,0,0,0,0,0c0-0.4,0.2-0.8,0.6-1c0.1,0,0.1-0.1,0.1-0.2c0-0.1-0.1-0.1-0.2-0.1c0,0-0.1,0-0.1,0
		c-0.7,0-1.2-0.6-1.2-1.3c0-0.5,0.3-1,0.7-1.1c0.1-0.1,0.3-0.1,0.4-0.1c0.6,0,1.2,0.5,1.2,1.2c0,0.1,0.1,0.2,0.2,0.2
		c0.1,0,0.2-0.1,0.2-0.2c0-0.8-0.5-1.4-1.3-1.5c0,0,0,0,0,0c-0.4-0.2-0.6-0.6-0.6-1.1c0-0.7,0.5-1.3,1.2-1.3c0.1,0,0.2,0,0.3,0
		c0.1,0.7,0.8,1.3,1.5,1.3c0.1,0,0.2-0.1,0.2-0.2s-0.1-0.2-0.2-0.2c-0.6,0-1.1-0.4-1.2-1c0,0,0,0,0-0.1c0,0,0,0,0-0.1
		c0-0.7,0.5-1.3,1.2-1.3c0.6,0,1.2,0.6,1.2,1.4L31.5,28.7L31.5,28.7z"/>
	<path class="st3" d="M38.1,24.4c0-0.7-0.4-1.2-1-1.5c-0.1,0-0.2-0.1-0.3-0.1c0.3-0.3,0.4-0.7,0.4-1.1c0-0.9-0.7-1.6-1.6-1.6
		c-0.1,0-0.2,0-0.3,0c-0.1-0.8-0.8-1.5-1.6-1.5c-0.8,0-1.6,0.8-1.6,1.7v8.2c0,0.9,0.7,1.6,1.6,1.6c0.9,0,1.6-0.7,1.6-1.6
		c0,0,0,0,0,0c0.1,0,0.2,0,0.3,0c0.9,0,1.6-0.7,1.6-1.6c0-0.4-0.1-0.8-0.4-1.1C37.6,25.8,38.1,25.2,38.1,24.4
		C38.1,24.4,38.1,24.4,38.1,24.4C38.1,24.4,38.1,24.4,38.1,24.4z M33.8,28.7c-0.2,0-0.4-0.2-0.4-0.4c0-0.2,0.2-0.4,0.4-0.4
		c0.2,0,0.4,0.2,0.4,0.4C34.1,28.5,34,28.7,33.8,28.7z M35.7,27.3c-0.2,0-0.4-0.2-0.4-0.4s0.2-0.4,0.4-0.4c0.2,0,0.4,0.2,0.4,0.4
		C36,27.2,35.9,27.3,35.7,27.3z M36.5,25.7C36.5,25.7,36.5,25.7,36.5,25.7c-0.2,0-0.3,0-0.3,0.1s0,0.2,0.1,0.2
		c0.4,0.2,0.6,0.6,0.6,1.1c0,0.6-0.4,1.1-1,1.2v-0.6c0.3-0.1,0.5-0.4,0.5-0.7c0-0.4-0.3-0.7-0.7-0.7S35,26.6,35,27
		c0,0.3,0.2,0.6,0.5,0.7v0.6c-0.1,0-0.2,0-0.3-0.1c-0.1,0-0.1,0-0.2,0c-0.1,0-0.1,0.1-0.1,0.2c0,0,0,0.1,0,0.1c0,0.1,0,0.1,0,0.2
		c0,0.6-0.5,1.1-1,1.2V29c0.3-0.1,0.5-0.4,0.5-0.7c0-0.4-0.3-0.7-0.7-0.7s-0.7,0.3-0.7,0.7c0,0.3,0.2,0.6,0.5,0.7v0.9
		c-0.6-0.1-1-0.6-1-1.2V25h0.5c0.1,0.3,0.4,0.5,0.7,0.5c0.4,0,0.7-0.3,0.7-0.7s-0.3-0.7-0.7-0.7c-0.3,0-0.6,0.2-0.7,0.5h-0.5v-2.5
		h1.2H34h0.8c0.1,0.3,0.4,0.5,0.7,0.5c0.4,0,0.7-0.3,0.7-0.7s-0.3-0.7-0.7-0.7c-0.3,0-0.6,0.2-0.7,0.5h-0.6v-0.7
		c0.3-0.1,0.5-0.4,0.5-0.7c0-0.4-0.3-0.7-0.7-0.7s-0.7,0.3-0.7,0.7c0,0.3,0.2,0.6,0.5,0.7v0.7h-0.1h-1.2v-1.3c0-0.7,0.6-1.4,1.2-1.4
		c0.7,0,1.2,0.6,1.2,1.3c0,0,0,0,0,0.1c0,0.1,0,0.1,0.1,0.2c0,0,0.1,0,0.2,0c0.1-0.1,0.3-0.1,0.4-0.1c0.7,0,1.2,0.6,1.2,1.3
		c0,0.4-0.2,0.8-0.6,1.1c0,0,0,0,0,0C35.6,23,35,23.6,35,24.4c0,0.1,0.1,0.2,0.2,0.2c0.1,0,0.2-0.1,0.2-0.2c0-0.7,0.5-1.2,1.2-1.2
		c0.2,0,0.3,0,0.4,0.1c0.4,0.2,0.7,0.6,0.7,1.1C37.7,25.1,37.2,25.7,36.5,25.7z M33.4,24.8c0-0.2,0.2-0.4,0.4-0.4
		c0.2,0,0.4,0.2,0.4,0.4c0,0.2-0.2,0.4-0.4,0.4C33.6,25.1,33.4,25,33.4,24.8z M34,20.7c-0.2,0-0.4-0.2-0.4-0.4
		c0-0.2,0.2-0.4,0.4-0.4c0.2,0,0.4,0.2,0.4,0.4C34.4,20.6,34.2,20.7,34,20.7z M35.1,22c0-0.2,0.2-0.4,0.4-0.4c0.2,0,0.4,0.2,0.4,0.4
		c0,0.2-0.2,0.4-0.4,0.4C35.3,22.3,35.1,22.2,35.1,22z"/>
</g>
<line class="st4" x1="4.6" y1="13.1" x2="23" y2="13.1"/>
<line class="st5" x1="4.8" y1="16.1" x2="18.2" y2="16.1"/>
<line class="st5" x1="4.8" y1="19.6" x2="11.2" y2="19.6"/>
</svg>
