<?xml version="1.0" encoding="utf-8"?>
<!-- Generator: Adobe Illustrator 24.0.1, SVG Export Plug-In . SVG Version: 6.00 Build 0)  -->
<svg version="1.1" id="Layer_1" xmlns="http://www.w3.org/2000/svg" xmlns:xlink="http://www.w3.org/1999/xlink" x="0px" y="0px"
	 viewBox="0 0 50 36.2" style="enable-background:new 0 0 50 36.2;" xml:space="preserve">
<style type="text/css">
	.st0{fill:#51A890;}
	.st1{fill:#F0BC44;}
	.st2{fill:#072147;}
	.st3{fill:#456BBA;}
	.st4{fill:#FFFFFF;}
	.st5{fill-rule:evenodd;clip-rule:evenodd;fill:#FFFFFF;}
	.st6{fill:#45979D;}
	.st7{fill:#E76365;}
</style>
<g>
	<g>
		<path class="st4" d="M31,2.2v5.2C31,7.7,31.2,8,31.5,8h5.2c0.5,0,0.7-0.6,0.4-0.9l-5.2-5.2C31.6,1.5,31,1.7,31,2.2z"/>
		<path class="st4" d="M37.9,10.1h-8c-0.6,0-1.1-0.5-1.1-1.1V1c0-0.4-0.3-0.7-0.7-0.7H12.4c-0.6,0-1.1,0.5-1.1,1.1v33.5
			c0,0.6,0.5,1.1,1.1,1.1h25.1c0.6,0,1.1-0.5,1.1-1.1v-24C38.6,10.5,38.3,10.1,37.9,10.1z M20.7,21.9c0.4,0.4,0.4,1.1,0,1.5
			c-0.2,0.2-0.5,0.3-0.8,0.3c-0.3,0-0.6-0.1-0.8-0.3l-2.7-2.7c-0.2-0.2-0.3-0.5-0.3-0.8c0-0.3,0.1-0.6,0.3-0.8l2.7-2.7
			c0.4-0.4,1.1-0.4,1.5,0c0.4,0.4,0.4,1.1,0,1.5l-2,2L20.7,21.9z M27.6,15.7l-3.3,9c-0.2,0.4-0.6,0.7-1,0.7c-0.1,0-0.2,0-0.4-0.1
			c-0.6-0.2-0.9-0.8-0.6-1.4l3.3-9c0.2-0.6,0.8-0.9,1.4-0.6C27.6,14.6,27.8,15.2,27.6,15.7z M33.6,20.7l-2.7,2.7
			c-0.2,0.2-0.5,0.3-0.8,0.3s-0.6-0.1-0.8-0.3c-0.4-0.4-0.4-1.1,0-1.5l2-2l-2-2c-0.4-0.4-0.4-1.1,0-1.5c0.4-0.4,1.1-0.4,1.5,0
			l2.7,2.7C34,19.5,34,20.2,33.6,20.7z"/>
	</g>
</g>
</svg>
