<?xml version="1.0" encoding="utf-8"?>
<!-- Generator: Adobe Illustrator 23.0.2, SVG Export Plug-In . SVG Version: 6.00 Build 0)  -->
<svg version="1.1" id="Layer_1" xmlns="http://www.w3.org/2000/svg" xmlns:xlink="http://www.w3.org/1999/xlink" x="0px" y="0px"
	 viewBox="0 0 40.5 33.1" style="enable-background:new 0 0 40.5 33.1;" xml:space="preserve">
<style type="text/css">
	.st0{fill:none;stroke:#000333;stroke-width:1.5;stroke-miterlimit:10;}
	.st1{fill:#83B633;}
	.st2{fill-rule:evenodd;clip-rule:evenodd;fill:#FFFFFF;}
</style>
<path id="Path_88" class="st0" d="M31.8,29.1h-0.5H8c-3.7,0-6.6-2.9-6.6-6.6c0-3.2,2.3-6,5.4-6.5l0.6-0.1v-0.7
	c0-2.9,2.4-5.2,5.3-5.2c0.7,0,1.4,0.2,2,0.4l0.7,0.3l0.2-0.7c1.3-4.4,5.8-6.9,10.2-5.6c3.5,1,5.9,4.1,6,7.8v0.6l0.6,0.1
	c4.5,0.9,7.5,5.2,6.6,9.7C38.2,26,35.3,28.7,31.8,29.1L31.8,29.1z"/>
<circle class="st1" cx="31.3" cy="24.3" r="8.2"/>
<title>apm-icon</title>
<g>
	<g id="j4rwrw5met_2_" transform="translate(13.4445 24.6191)">
		<path class="st2" d="M15.2-1.3c-0.3,0.5-0.5,1.1-0.5,1.7l-2,0.2c0-1.1,0.3-2.2,0.9-3.1L15.2-1.3"/>
	</g>
	<g id="j4rwrw5seu_2_" transform="translate(39.0785 13.1735)">
		<path class="st2" d="M-6.1,9.2c-0.5-0.3-1.1-0.5-1.7-0.5l-0.2-2c1.1,0,2.2,0.2,3.1,0.9L-6.1,9.2"/>
	</g>
	<g id="j4rwrw5wev_2_" transform="translate(20.5199 13.5938)">
		<path class="st2" d="M10.1,8.4C9.6,8.5,9,8.8,8.6,9.2L7.1,8c0.8-0.8,1.8-1.4,2.8-1.5L10.1,8.4"/>
	</g>
	<g id="j4rwrw61ew_2_" transform="translate(13.8574 43.5023)">
		<path class="st2" d="M14.4-17.8c0.1,0.6,0.4,1.1,0.8,1.5L14-14.8c-0.8-0.8-1.4-1.8-1.5-2.8L14.4-17.8"/>
	</g>
	<g id="j4rwrw64ex_2_" transform="translate(51.7535 20.2352)">
		<path class="st2" d="M-15.5,3.6h-2c-0.2-0.4-0.4-0.7-0.7-1L-17,1C-16.2,1.7-15.7,2.6-15.5,3.6z"/>
	</g>
	<g id="j4rwrw6aey_2_" transform="translate(35.547 35.2703)">
		<path class="st2" d="M1.6-10.3L1.6-10.3c0,0.4-0.3,0.6-0.6,0.6h-4.6C-3.8-9.5-4-9.4-4.2-9.4c-0.2,0-0.4-0.1-0.6-0.3
			c-0.3-0.3-0.3-0.9,0-1.2c0.2-0.2,0.4-0.3,0.6-0.3c0.2,0,0.4,0.1,0.6,0.2c0,0,0,0,0,0h2.3h2l0.2,0l0,0C1.3-10.9,1.6-10.6,1.6-10.3
			C1.6-10.3,1.6-10.3,1.6-10.3C1.6-10.3,1.6-10.3,1.6-10.3z"/>
	</g>
</g>
</svg>
