<?xml version="1.0" encoding="utf-8"?>
<!-- Generator: Adobe Illustrator 23.0.2, SVG Export Plug-In . SVG Version: 6.00 Build 0)  -->
<svg version="1.1" id="Layer_1" xmlns="http://www.w3.org/2000/svg" xmlns:xlink="http://www.w3.org/1999/xlink" x="0px" y="0px"
	 viewBox="0 0 40.5 33.1" style="enable-background:new 0 0 40.5 33.1;" xml:space="preserve">
<style type="text/css">
	.st0{fill:none;stroke:#000333;stroke-width:1.5;stroke-linecap:round;stroke-linejoin:round;stroke-miterlimit:10;}
	.st1{fill:#83B633;}
	.st2{fill:none;stroke:#000333;stroke-width:1.5;stroke-linecap:round;stroke-miterlimit:10;}
	.st3{fill:none;stroke:#FFFFFF;stroke-linejoin:round;stroke-miterlimit:10;}
	.st4{fill:#FFFFFF;stroke:#000333;stroke-miterlimit:10;}
</style>
<title>apm-icon</title>
<path class="st0" d="M5,8.9l8.8,12.5v9.1v0.6h0.5h0.2l5.5-5.5v-4.2l9-12.3"/>
<circle class="st1" cx="27.8" cy="20.2" r="0.9"/>
<circle class="st1" cx="25.1" cy="25.2" r="0.9"/>
<circle class="st1" cx="30.5" cy="25.2" r="0.9"/>
<circle class="st1" cx="27.8" cy="24.3" r="8.2"/>
<ellipse class="st2" cx="17.2" cy="8.4" rx="12.6" ry="1.8"/>
<line class="st3" x1="25.1" y1="21.4" x2="25.1" y2="29"/>
<line class="st3" x1="27.7" y1="23.8" x2="27.7" y2="29"/>
<line class="st3" x1="30.5" y1="25.2" x2="30.5" y2="29"/>
<path id="Path_200_4_" class="st4" d="M27.7,3.6"/>
<polygon class="st4" points="20.2,9.3 20.2,2 23.2,2 24.7,3.3 24.7,9.3 "/>
<polygon class="st4" points="11.9,7.9 11.9,0.6 14.8,0.6 16.3,1.9 16.3,7.9 "/>
</svg>
