<?xml version="1.0" encoding="utf-8"?>
<!-- Generator: Adobe Illustrator 23.0.2, SVG Export Plug-In . SVG Version: 6.00 Build 0)  -->
<svg version="1.1" id="Layer_1" xmlns="http://www.w3.org/2000/svg" xmlns:xlink="http://www.w3.org/1999/xlink" x="0px" y="0px"
	 viewBox="0 0 40.5 33.1" style="enable-background:new 0 0 40.5 33.1;" xml:space="preserve">
<style type="text/css">
	.st0{fill:none;stroke:#000333;stroke-width:1.5;}
	.st1{fill:#83B633;}
	.st2{fill:none;stroke:#000333;stroke-linecap:round;}
	.st3{fill:#FFFFFF;stroke:#83B633;stroke-width:0.25;}
</style>
<title>apm-icon</title>
<rect x="10.8" y="2.7" class="st0" width="10.8" height="26"/>
<rect x="22.4" y="14.5" class="st0" width="10.8" height="14.2"/>
<rect x="4.6" y="14.5" class="st0" width="6.2" height="14.2"/>
<circle class="st1" cx="31.7" cy="24.6" r="8.2"/>
<g>
	<line class="st2" x1="14.3" y1="5.3" x2="14.3" y2="6.3"/>
	<line class="st2" x1="18.2" y1="5.3" x2="18.2" y2="6.3"/>
</g>
<line class="st2" x1="7.4" y1="16.9" x2="7.4" y2="17.9"/>
<line class="st2" x1="7.4" y1="21" x2="7.4" y2="22"/>
<line class="st2" x1="7.4" y1="25" x2="7.4" y2="26"/>
<g>
	<line class="st2" x1="14.3" y1="9.9" x2="14.3" y2="10.9"/>
	<line class="st2" x1="18.2" y1="9.9" x2="18.2" y2="10.9"/>
</g>
<g>
	<line class="st2" x1="14.3" y1="14.5" x2="14.3" y2="15.5"/>
	<line class="st2" x1="18.2" y1="14.5" x2="18.2" y2="15.5"/>
</g>
<g>
	<line class="st2" x1="14.3" y1="19.1" x2="14.3" y2="20.1"/>
	<line class="st2" x1="18.2" y1="19.1" x2="18.2" y2="20.1"/>
</g>
<g>
	<line class="st2" x1="14.3" y1="23.8" x2="14.3" y2="24.8"/>
	<line class="st2" x1="18.2" y1="23.8" x2="18.2" y2="24.8"/>
</g>
<g>
	<g>
		<path class="st3" d="M28.5,20.5c-1.3,0-2.3,1-2.3,2.3c0,1.3,1,2.3,2.3,2.3c1.3,0,2.3-1,2.3-2.3l0,0C30.7,21.6,29.7,20.6,28.5,20.5
			z"/>
		<path class="st3" d="M32,28.5h-7c0.1-1.9,1.8-3.4,3.7-3.2C30.5,25.4,31.9,26.8,32,28.5L32,28.5z"/>
	</g>
	<g>
		<path class="st3" d="M34.8,20.7c-1.3,0-2.3,1-2.3,2.3s1,2.3,2.3,2.3s2.3-1,2.3-2.3l0,0C37,21.8,36,20.8,34.8,20.7z"/>
		<path class="st3" d="M38.3,28.7h-7c0.1-1.9,1.8-3.4,3.7-3.2C36.8,25.6,38.2,27,38.3,28.7L38.3,28.7z"/>
	</g>
	<g>
		<path class="st3" d="M31.5,20.7c-1.3,0-2.3,1-2.3,2.3s1,2.3,2.3,2.3s2.3-1,2.3-2.3l0,0C33.7,21.8,32.7,20.8,31.5,20.7z"/>
		<path class="st3" d="M35,28.7h-7c0.1-1.9,1.8-3.4,3.7-3.2C33.4,25.6,34.8,27,35,28.7L35,28.7z"/>
	</g>
</g>
</svg>
