<?xml version="1.0" encoding="utf-8"?>
<!-- Generator: Adobe Illustrator 24.0.1, SVG Export Plug-In . SVG Version: 6.00 Build 0)  -->
<svg version="1.1" id="Layer_1" xmlns="http://www.w3.org/2000/svg" xmlns:xlink="http://www.w3.org/1999/xlink" x="0px" y="0px"
	 viewBox="0 0 50 36.2" style="enable-background:new 0 0 50 36.2;" xml:space="preserve">
<style type="text/css">
	.st0{fill:#51A890;}
	.st1{fill:#F0BC44;}
	.st2{fill:#072147;}
	.st3{fill:#456BBA;}
	.st4{fill:#FFFFFF;}
	.st5{fill-rule:evenodd;clip-rule:evenodd;fill:#FFFFFF;}
	.st6{fill:#45979D;}
	.st7{fill:#E76365;}
</style>
<g>
	<path class="st4" d="M2.5,5v28.3c0,1.6,1.3,2.9,2.9,2.9h39c1.6,0,2.9-1.3,2.9-2.9V5c0-1.6-1.3-2.9-2.9-2.9h-39C3.9,2,2.5,3.4,2.5,5
		z M6.5,4.2c0.5,0,0.9,0.4,0.9,0.9S7,6.1,6.5,6.1S5.6,5.6,5.6,5.1C5.6,4.6,6,4.2,6.5,4.2z M9.4,4.2c0.5,0,0.9,0.4,0.9,0.9
		S9.9,6.1,9.4,6.1S8.4,5.6,8.4,5.1C8.4,4.6,8.9,4.2,9.4,4.2z M12.2,4.2c0.5,0,0.9,0.4,0.9,0.9s-0.4,0.9-0.9,0.9
		c-0.5,0-0.9-0.4-0.9-0.9C11.3,4.6,11.7,4.2,12.2,4.2z M4.3,33.3V8.2h41.3v25.1c0,0.6-0.5,1.1-1.1,1.1h-39
		C4.8,34.4,4.3,33.9,4.3,33.3z"/>
	<g>
		<path class="st5" d="M24.7,12.5c3.2,0,6.1,1.3,8.2,3.4s3.4,5,3.4,8.2c0,2.2-0.6,4.2-1.6,6H34c-0.3,0-0.7-0.2-0.8-0.5
			c-0.2-0.3-0.2-0.7,0-1c0.6-1.1,1-2.4,1.1-3.8h-1c-0.3,0-0.5-0.2-0.5-0.5v-0.5c0-0.3,0.2-0.5,0.5-0.5h1c-0.1-1.2-0.4-2.3-0.9-3.4
			l-0.9,0.5c-0.2,0.1-0.6,0.1-0.7-0.2L31.5,20c-0.1-0.2-0.1-0.6,0.2-0.7l0.9-0.5c-0.3-0.5-0.7-0.9-1.1-1.4c-0.4-0.4-0.8-0.8-1.4-1.1
			l-0.5,0.9c-0.1,0.2-0.5,0.3-0.7,0.2l-0.4-0.2c-0.2-0.1-0.3-0.5-0.2-0.7l0.5-0.9c-1-0.5-2.2-0.8-3.4-0.9v1c0,0.3-0.2,0.5-0.5,0.5
			h-0.5c-0.3,0-0.5-0.2-0.5-0.5v-1c-1.2,0.1-2.3,0.4-3.4,0.9l0.5,0.9c0.1,0.2,0.1,0.6-0.2,0.7l-0.4,0.2c-0.2,0.1-0.6,0.1-0.7-0.2
			l-0.5-0.9c-0.5,0.3-0.9,0.7-1.4,1.1c-0.4,0.4-0.8,0.8-1.1,1.4l0.9,0.5c0.2,0.1,0.3,0.5,0.2,0.7l-0.2,0.4c-0.1,0.2-0.5,0.3-0.7,0.2
			l-0.9-0.5c-0.5,1-0.8,2.2-0.9,3.4h1.1c0.3,0,0.5,0.2,0.5,0.5v0.5c0,0.3-0.2,0.5-0.5,0.5h-1c0.1,1.4,0.5,2.6,1.1,3.8
			c0.2,0.3,0.2,0.7,0,1c-0.2,0.3-0.5,0.5-0.8,0.5h-0.7c-1-1.7-1.6-3.8-1.6-6c0-3.2,1.3-6.2,3.4-8.2C18.6,13.8,21.5,12.5,24.7,12.5z"
			/>
		<path class="st5" d="M23.2,25.1c-0.5-0.8,0-2.1,0.6-2.4c0.1,0,3.8-1.1,5.5-1.6c0.1,0,0.2,0,0.2,0.1c0.1,0.1,0,0.2,0,0.2
			c-1.1,1.2-3.7,4.2-3.8,4.2C25.1,26,23.7,25.9,23.2,25.1z"/>
	</g>
</g>
</svg>
