<?xml version="1.0" encoding="UTF-8"?>
<svg width="43px" height="77px" viewBox="0 0 43 77" version="1.1" xmlns="http://www.w3.org/2000/svg" xmlns:xlink="http://www.w3.org/1999/xlink">
    <!-- Generator: Sketch 54.1 (76490) - https://sketchapp.com -->
    <title>left-arrow</title>
    <desc>Created with Sketch.</desc>
    <g id="Page-1" stroke="none" stroke-width="1" fill="none" fill-rule="evenodd">
        <g id="left-arrow" transform="translate(20.524558, 38.767041) rotate(-270.000000) translate(-20.524558, -38.767041) translate(-13.475442, 21.767041)" fill="#4A4A4A" fill-rule="nonzero" stroke="#4A4A4A" stroke-width="10">
            <g id="Group" transform="translate(0.732959, 0.024558)">
                <path d="M33.6149118,32.2217934 C34.3892124,32.1429256 35.1214803,31.8336516 35.7158105,31.3344771 L65.0794468,6.77632987 C66.13628,5.89379751 66.6387661,4.51834659 66.3976235,3.16809624 C66.1564808,1.81784588 65.2083446,0.697931277 63.9103687,0.230213472 C62.6123929,-0.237504333 61.1617707,0.0180321367 60.1049377,0.900564752 L33.2285482,23.3722678 L6.35216637,0.900564752 C5.29533335,0.0180322467 3.84471128,-0.237504143 2.54673548,0.230213676 C1.24875968,0.697931494 0.300623574,1.81784605 0.0594808824,3.16809634 C-0.181661809,4.51834663 0.320824229,5.8937975 1.37765735,6.77632987 L30.7412936,31.3344771 C31.5390785,32.0037617 32.5756637,32.3238386 33.6149118,32.2217934 L33.6149118,32.2217934 Z" id="Path"></path>
            </g>
        </g>
    </g>
</svg>