<svg id="Layer_1" data-name="Layer 1" xmlns="http://www.w3.org/2000/svg" viewBox="0 0 50 36.23"><defs><style>.cls-1{fill:#fff;}</style></defs><title>web-icon</title><path class="cls-1" d="M26.4,1.8A17.24,17.24,0,1,0,42.18,17.59,17.24,17.24,0,0,0,26.4,1.8Zm2,2.5c.66.15,1.32.37,2,.59a3.36,3.36,0,0,0,1.18.51,14.9,14.9,0,0,1,4.84,3.67.55.55,0,0,1,.15.37,2.25,2.25,0,0,1-.07,1,1.56,1.56,0,0,0-.15.58.88.88,0,0,0,.66.74,3.45,3.45,0,0,0,.88.07.57.57,0,0,1,.52.37,5,5,0,0,0,.51,1.1A14.81,14.81,0,0,1,40,18.33a1,1,0,0,1-.22.66,6,6,0,0,0-.81,1.1,15.08,15.08,0,0,1-1.69,3.08,3.75,3.75,0,0,0-.95,1.4,6.82,6.82,0,0,0-.15,1.17c0,.15-.29.15-.44.08A8.26,8.26,0,0,1,34.47,23a21.83,21.83,0,0,0-.51-2.2A2.92,2.92,0,0,0,32.64,19a6.2,6.2,0,0,0-2.35-.37,2.7,2.7,0,0,1-2.21-.81,1.74,1.74,0,0,1-.36-1,4.62,4.62,0,0,1,2.35-4.84c.22-.15.44-.22.66-.37A1.51,1.51,0,0,0,31.24,10,.2.2,0,0,0,31,9.88a6.08,6.08,0,0,0-1.25.52c-.22.07-.44-.08-.37-.23a8,8,0,0,1,.3-2.2,3.25,3.25,0,0,0,.07-2.35.58.58,0,0,0-.44-.29H27.2c-.07,0-.07-.08-.07-.08a4.91,4.91,0,0,0,.95-.8A.53.53,0,0,1,28.38,4.3ZM21,4.52a.27.27,0,0,1,.37.15c.22.36.37.73.59,1.17a3.61,3.61,0,0,1,.14,2.87c-.51,1-1.69,1.46-2.64,2A13.55,13.55,0,0,0,14.5,15.1c-.08.07-.15.22-.22.22a.27.27,0,0,1-.37-.15,2.11,2.11,0,0,1-.59-.52c-.07-.07-.29.08-.29.22a2.39,2.39,0,0,0,1.1,2.65,1.59,1.59,0,0,1,.44.29c.3.37,0,.88.07,1.32a1.3,1.3,0,0,0,1.47.89,7.52,7.52,0,0,0,1.77-.59,4.43,4.43,0,0,1,4,.51c.59.37,1.1,1,1.69,1.32a2.66,2.66,0,0,0,1.76.59.57.57,0,0,1,.37.15,2.07,2.07,0,0,1-.37,1.83,16.84,16.84,0,0,1-1.61,1.55c-1.25,1.39-1.54,3.52-2.57,5.06a4.41,4.41,0,0,0-.59,1,3.69,3.69,0,0,0-.15,1.54c0,.07-.07.22-.14.15a3.29,3.29,0,0,1-.74-.3.47.47,0,0,1-.29-.36,20.13,20.13,0,0,0-2.13-6.1,5.32,5.32,0,0,0-1.62-2,1.16,1.16,0,0,1-.51-.52c-.07-.14,0-.36,0-.51a5.59,5.59,0,0,0-2.28-5.21c-.29-.22-.59-.37-.73-.66s-.15-.74-.3-1-.73-.66-1-.88-.15-.22-.15-.37A15,15,0,0,1,21,4.52Z"/></svg>