<?xml version="1.0" encoding="utf-8"?>
<!-- Generator: Adobe Illustrator 23.0.2, SVG Export Plug-In . SVG Version: 6.00 Build 0)  -->
<svg version="1.1" id="Layer_1" xmlns="http://www.w3.org/2000/svg" xmlns:xlink="http://www.w3.org/1999/xlink" x="0px" y="0px"
	 viewBox="0 0 40.5 33.1" style="enable-background:new 0 0 40.5 33.1;" xml:space="preserve">
<style type="text/css">
	.st0{fill:none;stroke:#83B633;stroke-width:1.5;stroke-linecap:round;stroke-linejoin:round;}
	.st1{fill:none;stroke:#83B633;stroke-width:1.5;stroke-linecap:round;}
	.st2{fill:none;stroke:#000333;stroke-width:1.5;stroke-linecap:round;}
	.st3{fill:#000333;}
	.st4{fill:#83B633;}
	.st5{fill:#FFFFFF;}
	.st6{fill:none;stroke:#FFFFFF;stroke-width:0.75;stroke-linecap:round;stroke-miterlimit:10;}
</style>
<title>apm-icon</title>
<path id="Path_192" class="st0" d="M9.2,14.4l-2.7,2.7l2.7,2.7"/>
<path id="Path_192_1_" class="st0" d="M19.3,19.8l2.7-2.7l-2.7-2.7"/>
<path id="Path_194" class="st1" d="M16.7,11.2L11.8,23"/>
<rect x="1.7" y="1.9" class="st2" width="26.7" height="26"/>
<line class="st2" x1="1.7" y1="7.8" x2="28.4" y2="7.8"/>
<circle class="st3" cx="4.5" cy="4.7" r="1"/>
<circle class="st3" cx="8" cy="4.7" r="1"/>
<circle class="st3" cx="11.5" cy="4.7" r="1"/>
<circle class="st4" cx="31.8" cy="24.3" r="8.2"/>
<path class="st5" d="M36.8,21.7l-0.7-0.4c-0.4,0.7-1.1,1.3-1.9,1.5c-0.1-0.1-0.2-0.2-0.3-0.3c0.1-0.2,0.1-0.4,0.1-0.6
	c0-1.2-1-2.2-2.2-2.2s-2.2,1-2.2,2.2c0,0.2,0,0.4,0.1,0.6c-0.1,0.1-0.2,0.2-0.3,0.3c-0.8-0.2-1.5-0.7-1.9-1.5l-0.7,0.4
	c0.4,0.8,1.2,1.5,2.1,1.8c-0.2,0.4-0.3,0.8-0.3,1.2h-1.4v0.8h1.4c0,0.4,0.2,0.8,0.3,1.2c-0.9,0.3-1.7,1-2.1,1.8l0.7,0.4
	c0.4-0.7,1-1.2,1.9-1.5c0.6,0.7,1.5,1.2,2.4,1.2c1,0,1.8-0.5,2.4-1.2c0.8,0.2,1.5,0.7,1.9,1.5l0.7-0.4c-0.4-0.9-1.2-1.5-2.1-1.8
	c0.2-0.4,0.3-0.7,0.3-1.2h1.4v-0.8H35c0-0.4-0.2-0.8-0.3-1.2C35.6,23.2,36.3,22.6,36.8,21.7z"/>
<path class="st5" d="M31.8,27.7c-1.4,0-2.5-1.2-2.5-2.6c0-1.5,1.1-2.6,2.5-2.6c1.4,0,2.5,1.2,2.5,2.6C34.2,26.5,33.1,27.7,31.8,27.7
	z"/>
<rect x="31.5" y="22.7" class="st4" width="0.5" height="5.9"/>
<rect x="31.6" y="20.1" transform="matrix(-1.836970e-16 1 -1 -1.836970e-16 54.3456 -9.2697)" class="st4" width="0.5" height="4.8"/>
<path class="st6" d="M30.6,20.2c0,0-0.7-1.4-1.9-1.3"/>
<path class="st6" d="M32.7,20.4c0,0,0.7-1.4,1.9-1.3"/>
</svg>
