<?xml version="1.0" encoding="utf-8"?>
<!-- Generator: Adobe Illustrator 24.0.1, SVG Export Plug-In . SVG Version: 6.00 Build 0)  -->
<svg version="1.1" id="Layer_1" xmlns="http://www.w3.org/2000/svg" xmlns:xlink="http://www.w3.org/1999/xlink" x="0px" y="0px"
	 viewBox="0 0 50 36.2" style="enable-background:new 0 0 50 36.2;" xml:space="preserve">
<style type="text/css">
	.st0{fill:#51A890;}
	.st1{fill:#F0BC44;}
	.st2{fill:#072147;}
	.st3{fill:#456BBA;}
	.st4{fill:#FFFFFF;}
	.st5{fill-rule:evenodd;clip-rule:evenodd;fill:#FFFFFF;}
	.st6{fill:#45979D;}
	.st7{fill:#E76365;}
</style>
<g>
	<defs>
		<rect id="SVGID_1_" x="318.1" y="-501" width="1158.7" height="162.4"/>
	</defs>
	<clipPath id="SVGID_2_">
		<use xlink:href="#SVGID_1_"  style="overflow:visible;"/>
	</clipPath>
	<g style="clip-path:url(#SVGID_2_);">
		
			<image style="overflow:visible;" width="2796" height="1032" xlink:href="../../../../../Users/thiyaga-1984/Desktop/Screen Shot 2020-06-03 at 4.53.08 PM.png"  transform="matrix(0.5 0 0 0.5 240.9217 -608.0062)">
		</image>
	</g>
</g>
<rect x="335.6" y="-274.7" class="st0" width="157.4" height="132.8"/>
<rect x="520.8" y="-277.1" class="st1" width="157.4" height="132.8"/>
<rect x="703.8" y="-278.6" class="st2" width="157.4" height="132.8"/>
<rect x="889.3" y="-278.4" class="st3" width="157.4" height="132.8"/>
<path class="st4" d="M415.9-228c-12.1-1-22.3,9.2-21.3,21.3c0.8,9.6,8.5,17.3,18.1,18.1c12.2,1,22.3-9.2,21.3-21.3
	C433.2-219.5,425.5-227.3,415.9-228z M418.2-225.2c0.8,0.2,1.5,0.4,2.3,0.7c0.4,0.3,0.8,0.5,1.3,0.6c2.1,1,4,2.4,5.6,4.2
	c0.1,0.1,0.2,0.3,0.2,0.4c0.1,0.3,0,0.8-0.1,1.1c-0.1,0.3-0.2,0.4-0.2,0.7c0,0.4,0.4,0.8,0.8,0.8c0.3,0.1,0.7,0.1,1,0.1
	c0.3,0,0.5,0.2,0.6,0.4c0.2,0.4,0.4,1.1,0.6,1.3c0.8,1.9,1.2,3.8,1.3,5.8c0,0.3-0.1,0.6-0.3,0.8c-0.3,0.3-0.7,0.8-0.9,1.3
	c-0.6,1.2-1.1,2.5-1.9,3.5c-0.4,0.5-0.9,0.9-1.1,1.6c-0.2,0.4-0.1,0.9-0.2,1.3c0,0.2-0.3,0.2-0.5,0.1c-0.7-1-1.2-2.1-1.4-3.3
	c-0.2-0.8-0.3-1.7-0.6-2.5c-0.3-0.8-0.8-1.6-1.5-2c-0.8-0.4-1.8-0.3-2.7-0.4c-0.9,0-1.9-0.2-2.5-0.9c-0.3-0.3-0.4-0.8-0.4-1.2
	c-0.4-2.2,0.8-4.5,2.7-5.6c0.3-0.2,0.5-0.3,0.8-0.4c0.5-0.4,0.8-1.1,0.6-1.8c0-0.2-0.3-0.3-0.3-0.2c-0.5,0.2-1,0.3-1.4,0.6
	c-0.3,0.1-0.5-0.1-0.4-0.3c0-0.8,0.1-1.7,0.3-2.5c0.3-0.9,0.5-1.9,0.1-2.7c-0.1-0.2-0.3-0.3-0.5-0.3c-0.8,0-1.5,0-2.4,0
	c-0.1,0-0.1-0.1-0.1-0.1c0.4-0.3,0.8-0.6,1.1-0.9C417.9-225.1,418.1-225.2,418.2-225.2z M409.7-224.9c0.2-0.1,0.3,0,0.4,0.2
	c0.3,0.4,0.4,0.8,0.7,1.3c0.4,1.1,0.7,2.3,0.2,3.3c-0.6,1.2-1.9,1.7-3,2.3c-2.3,1.2-4.2,2.9-5.6,5.1c-0.1,0.1-0.2,0.3-0.3,0.3
	c-0.2,0.1-0.3,0-0.4-0.2c-0.3-0.2-0.5-0.3-0.7-0.6c-0.1-0.1-0.3,0.1-0.3,0.3c-0.3,1.2,0.3,2.4,1.3,3c0.2,0.1,0.3,0.2,0.5,0.3
	c0.3,0.4,0,1,0.1,1.5c0.1,0.7,0.9,1.1,1.7,1s1.3-0.4,2-0.7c1.5-0.5,3.3-0.3,4.5,0.6c0.7,0.4,1.3,1.1,1.9,1.5c0.6,0.4,1.3,0.8,2,0.7
	c0.2,0,0.3,0.1,0.4,0.2c0.3,0.7,0,1.5-0.4,2.1c-0.5,0.7-1.3,1.2-1.9,1.8c-1.4,1.6-1.8,4-2.9,5.8c-0.3,0.3-0.5,0.7-0.7,1.1
	c-0.3,0.6-0.2,1.2-0.2,1.8c0,0.1-0.1,0.3-0.2,0.2c-0.3-0.1-0.6-0.2-0.8-0.3c-0.2-0.1-0.3-0.3-0.3-0.4c-0.4-2.4-1.3-4.8-2.4-7
	c-0.5-0.8-1-1.8-1.9-2.3c-0.3-0.2-0.5-0.3-0.6-0.6c-0.1-0.2,0-0.4,0-0.6c0.3-2.3-0.8-4.6-2.6-6c-0.3-0.3-0.7-0.4-0.8-0.8
	c-0.2-0.3-0.2-0.8-0.3-1.2c-0.2-0.3-0.8-0.8-1.2-1c-0.2-0.1-0.2-0.3-0.2-0.4C399.1-218.5,403.8-223.3,409.7-224.9z"/>
<g>
	<path class="st5" d="M802.4-213.2c-0.3-7.6-7.6-12.7-14.7-10.7c-6.7-10.1-22.5-5.9-23.1,6.3c-12.7,3.5-10.3,22.7,3.1,22.7h31.6
		C810-194.8,812.3-209.9,802.4-213.2z"/>
</g>
<g>
	<path class="st5" d="M0.3,50.7C0.1,44.4-6,40.2-12,41.8c-5.6-8.4-18.8-4.9-19.2,5.3C-41.7,50-39.7,66-28.6,66h26.3
		C6.6,66,8.5,53.4,0.3,50.7z"/>
</g>
<g>
	<g>
		<circle class="st4" cx="612" cy="-210.7" r="0.7"/>
		<path class="st4" d="M617.6-215.6h-36.2c-0.4,0-0.7,0.3-0.7,0.7v8.4c0,0.4,0.3,0.7,0.7,0.7h36.2c0.4,0,0.7-0.3,0.7-0.7v-8.4
			C618.3-215.2,618-215.6,617.6-215.6z M600.9-210h-15.3c-0.4,0-0.7-0.3-0.7-0.7s0.3-0.7,0.7-0.7h15.3c0.4,0,0.7,0.3,0.7,0.7
			S601.3-210,600.9-210z M612-208.6c-1.2,0-2.1-0.9-2.1-2.1c0-1.2,0.9-2.1,2.1-2.1s2.1,0.9,2.1,2.1
			C614.1-209.5,613.2-208.6,612-208.6z"/>
		<circle class="st4" cx="612" cy="-223.2" r="0.7"/>
		<path class="st4" d="M617.6-228.1h-36.2c-0.4,0-0.7,0.3-0.7,0.7v8.4c0,0.4,0.3,0.7,0.7,0.7h36.2c0.4,0,0.7-0.3,0.7-0.7v-8.4
			C618.3-227.8,618-228.1,617.6-228.1z M600.9-222.5h-15.3c-0.4,0-0.7-0.3-0.7-0.7s0.3-0.7,0.7-0.7h15.3c0.4,0,0.7,0.3,0.7,0.7
			S601.3-222.5,600.9-222.5z M612-221.1c-1.2,0-2.1-0.9-2.1-2.1s0.9-2.1,2.1-2.1s2.1,0.9,2.1,2.1S613.2-221.1,612-221.1z"/>
		<circle class="st4" cx="612" cy="-198.1" r="0.7"/>
		<path class="st4" d="M617.6-203h-36.2c-0.4,0-0.7,0.3-0.7,0.7v8.4c0,0.4,0.3,0.7,0.7,0.7h36.2c0.4,0,0.7-0.3,0.7-0.7v-8.4
			C618.3-202.7,618-203,617.6-203z M600.9-197.4h-15.3c-0.4,0-0.7-0.3-0.7-0.7c0-0.4,0.3-0.7,0.7-0.7h15.3c0.4,0,0.7,0.3,0.7,0.7
			C601.6-197.8,601.3-197.4,600.9-197.4z M612-196.1c-1.2,0-2.1-0.9-2.1-2.1c0-1.2,0.9-2.1,2.1-2.1s2.1,0.9,2.1,2.1
			C614.1-197,613.2-196.1,612-196.1z"/>
	</g>
</g>
<g>
	<g>
		<circle class="st4" cx="40.3" cy="70" r="0.7"/>
		<path class="st4" d="M45.9,65.1H9.7c-0.4,0-0.7,0.3-0.7,0.7v8.4c0,0.4,0.3,0.7,0.7,0.7h36.2c0.4,0,0.7-0.3,0.7-0.7v-8.4
			C46.6,65.4,46.3,65.1,45.9,65.1z M29.2,70.7H13.9c-0.4,0-0.7-0.3-0.7-0.7c0-0.4,0.3-0.7,0.7-0.7h15.3c0.4,0,0.7,0.3,0.7,0.7
			C29.9,70.4,29.6,70.7,29.2,70.7z M40.3,72.1c-1.2,0-2.1-0.9-2.1-2.1c0-1.2,0.9-2.1,2.1-2.1s2.1,0.9,2.1,2.1
			C42.4,71.1,41.5,72.1,40.3,72.1z"/>
		<circle class="st4" cx="40.3" cy="57.4" r="0.7"/>
		<path class="st4" d="M45.9,52.6H9.7c-0.4,0-0.7,0.3-0.7,0.7v8.4c0,0.4,0.3,0.7,0.7,0.7h36.2c0.4,0,0.7-0.3,0.7-0.7v-8.4
			C46.6,52.9,46.3,52.6,45.9,52.6z M29.2,58.1H13.9c-0.4,0-0.7-0.3-0.7-0.7c0-0.4,0.3-0.7,0.7-0.7h15.3c0.4,0,0.7,0.3,0.7,0.7
			C29.9,57.8,29.6,58.1,29.2,58.1z M40.3,59.5c-1.2,0-2.1-0.9-2.1-2.1c0-1.2,0.9-2.1,2.1-2.1s2.1,0.9,2.1,2.1
			C42.4,58.6,41.5,59.5,40.3,59.5z"/>
		<circle class="st4" cx="40.3" cy="82.5" r="0.7"/>
		<path class="st4" d="M45.9,77.6H9.7C9.3,77.6,9,78,9,78.3v8.4c0,0.4,0.3,0.7,0.7,0.7h36.2c0.4,0,0.7-0.3,0.7-0.7v-8.4
			C46.6,78,46.3,77.6,45.9,77.6z M29.2,83.2H13.9c-0.4,0-0.7-0.3-0.7-0.7c0-0.4,0.3-0.7,0.7-0.7h15.3c0.4,0,0.7,0.3,0.7,0.7
			C29.9,82.9,29.6,83.2,29.2,83.2z M40.3,84.6c-1.2,0-2.1-0.9-2.1-2.1c0-1.2,0.9-2.1,2.1-2.1s2.1,0.9,2.1,2.1
			C42.4,83.7,41.5,84.6,40.3,84.6z"/>
	</g>
</g>
<path class="st4" d="M990-204h-4.3v-8c0-0.6-0.5-1.2-1.2-1.2h-15.3v-6.8h4.3c0.6,0,1.2-0.5,1.2-1.2v-7.3c0-0.6-0.5-1.2-1.2-1.2h-11
	c-0.6,0-1.2,0.5-1.2,1.2v7.3c0,0.6,0.5,1.2,1.2,1.2h4.3v6.8h-15.3c-0.6,0-1.2,0.5-1.2,1.2v8H946c-0.6,0-1.2,0.5-1.2,1.2v7.3
	c0,0.6,0.5,1.2,1.2,1.2h11c0.6,0,1.2-0.5,1.2-1.2v-7.3c0-0.6-0.5-1.2-1.2-1.2h-4.3v-6.8h14.1v6.8h-4.3c-0.6,0-1.2,0.5-1.2,1.2v7.3
	c0,0.6,0.5,1.2,1.2,1.2h11c0.6,0,1.2-0.5,1.2-1.2v-7.3c0-0.6-0.5-1.2-1.2-1.2h-4.3v-6.8h14.1v6.8H979c-0.6,0-1.2,0.5-1.2,1.2v7.3
	c0,0.6,0.5,1.2,1.2,1.2h11c0.6,0,1.2-0.5,1.2-1.2v-7.3C991.2-203.4,990.7-204,990-204z"/>
<rect x="1081.2" y="-282.1" class="st6" width="157.4" height="132.8"/>
<rect x="1278.8" y="-280.7" class="st7" width="157.4" height="132.8"/>
<g>
	<g>
		<path class="st4" d="M1167.7-236.4v6.8c0,0.4,0.3,0.7,0.7,0.7h6.8c0.6,0,0.9-0.7,0.5-1.2l-6.8-6.8
			C1168.5-237.3,1167.7-237,1167.7-236.4z"/>
		<path class="st4" d="M1176.8-226.1h-10.5c-0.8,0-1.4-0.6-1.4-1.4V-238c0-0.5-0.4-1-1-1h-20.4c-0.8,0-1.4,0.6-1.4,1.4v43.7
			c0,0.8,0.6,1.4,1.4,1.4h32.8c0.8,0,1.4-0.6,1.4-1.4v-31.3C1177.7-225.7,1177.3-226.1,1176.8-226.1z M1154.3-210.8
			c0.5,0.5,0.5,1.4,0,2c-0.3,0.3-0.6,0.4-1,0.4s-0.7-0.1-1-0.4l-3.6-3.6c-0.3-0.3-0.4-0.6-0.4-1s0.1-0.7,0.4-1l3.6-3.6
			c0.5-0.5,1.4-0.5,2,0s0.5,1.4,0,2l-2.6,2.6L1154.3-210.8z M1163.4-218.8l-4.2,11.8c-0.2,0.6-0.7,0.9-1.3,0.9c-0.2,0-0.3,0-0.5-0.1
			c-0.7-0.3-1.1-1.1-0.8-1.8l4.2-11.8c0.3-0.7,1.1-1.1,1.8-0.8C1163.3-220.3,1163.6-219.5,1163.4-218.8z M1171.1-212.4l-3.6,3.6
			c-0.3,0.3-0.6,0.4-1,0.4s-0.7-0.1-1-0.4c-0.5-0.5-0.5-1.4,0-2l2.6-2.6l-2.6-2.6c-0.5-0.5-0.5-1.4,0-2s1.4-0.5,2,0l3.6,3.6
			C1171.6-213.8,1171.6-212.9,1171.1-212.4z"/>
	</g>
</g>
<g>
	<path class="st4" d="M1329.4-232v35.4c0,2,1.7,3.7,3.7,3.7h48.8c2,0,3.7-1.7,3.7-3.7V-232c0-2-1.7-3.7-3.7-3.7h-48.8
		C1331.1-235.7,1329.4-234,1329.4-232z M1334.4-233c0.6,0,1.2,0.5,1.2,1.2c0,0.6-0.5,1.2-1.2,1.2c-0.6,0-1.2-0.5-1.2-1.2
		C1333.2-232.5,1333.8-233,1334.4-233z M1338-233c0.6,0,1.2,0.5,1.2,1.2c0,0.6-0.5,1.2-1.2,1.2c-0.6,0-1.2-0.5-1.2-1.2
		C1336.8-232.5,1337.3-233,1338-233z M1341.5-233c0.6,0,1.2,0.5,1.2,1.2c0,0.6-0.5,1.2-1.2,1.2c-0.6,0-1.2-0.5-1.2-1.2
		C1340.4-232.5,1340.9-233,1341.5-233z M1331.7-196.6V-228h51.6v31.4c0,0.8-0.6,1.4-1.4,1.4h-48.8
		C1332.3-195.2,1331.7-195.8,1331.7-196.6z"/>
	<g>
		<path class="st5" d="M1357.1-222.5c4,0,7.6,1.6,10.3,4.3c2.6,2.6,4.3,6.3,4.3,10.3c0,2.7-0.8,5.3-2.1,7.4h-0.9
			c-0.4,0-0.8-0.2-1.1-0.6c-0.2-0.4-0.2-0.8,0-1.2c0.8-1.4,1.3-3,1.4-4.7h-1.3c-0.3,0-0.6-0.3-0.6-0.6v-0.6c0-0.3,0.3-0.6,0.6-0.6
			h1.3c-0.1-1.5-0.5-2.9-1.1-4.2l-1.1,0.6c-0.3,0.2-0.7,0.1-0.9-0.2l-0.3-0.5c-0.2-0.3-0.1-0.7,0.2-0.9l1.1-0.6
			c-0.4-0.6-0.9-1.2-1.4-1.7c-0.5-0.5-1.1-1-1.7-1.4l-0.6,1.1c-0.2,0.3-0.6,0.4-0.9,0.2l-0.5-0.3c-0.3-0.2-0.4-0.6-0.2-0.9l0.6-1.1
			c-1.3-0.6-2.7-1-4.2-1.1v1.3c0,0.3-0.3,0.6-0.6,0.6h-0.6c-0.3,0-0.6-0.3-0.6-0.6v-1.3c-1.5,0.1-2.9,0.5-4.2,1.1l0.6,1.1
			c0.2,0.3,0.1,0.7-0.2,0.9l-0.5,0.3c-0.3,0.2-0.7,0.1-0.9-0.2l-0.6-1.1c-0.6,0.4-1.2,0.9-1.7,1.4c-0.5,0.5-1,1.1-1.4,1.7l1.1,0.6
			c0.3,0.2,0.4,0.6,0.2,0.9l-0.3,0.5c-0.2,0.3-0.6,0.4-0.9,0.2l-1.1-0.6c-0.6,1.3-1,2.7-1.1,4.2h1.3c0.3,0,0.6,0.3,0.6,0.6v0.6
			c0,0.3-0.3,0.6-0.6,0.6h-1.3c0.1,1.7,0.6,3.3,1.4,4.7c0.2,0.4,0.2,0.8,0,1.2c-0.2,0.4-0.6,0.6-1.1,0.6h-0.9
			c-1.3-2.2-2.1-4.7-2.1-7.5c0-4,1.6-7.7,4.3-10.3C1349.5-220.9,1353.1-222.5,1357.1-222.5z"/>
		<path class="st5" d="M1355.3-206.8c-0.6-1,0-2.6,0.7-3c0.1,0,4.8-1.4,6.8-2c0.1,0,0.2,0,0.3,0.1c0.1,0.1,0,0.2,0,0.3
			c-1.4,1.6-4.7,5.2-4.7,5.3C1357.6-205.7,1355.9-205.8,1355.3-206.8z"/>
	</g>
</g>
<path class="st4" d="M-26.6-27.6c-10.6-0.9-19.5,8-18.6,18.6c0.7,8.4,7.4,15.1,15.8,15.8c10.6,0.9,19.5-8,18.6-18.6
	C-11.5-20.2-18.3-26.9-26.6-27.6z M-24.6-25.1c0.7,0.1,1.3,0.4,2,0.6c0.4,0.2,0.7,0.4,1.2,0.5c1.8,0.9,3.5,2.1,4.8,3.7
	c0.1,0.1,0.1,0.2,0.1,0.4c0.1,0.3,0,0.7-0.1,1c-0.1,0.2-0.1,0.4-0.1,0.6c0,0.4,0.4,0.7,0.7,0.7c0.2,0.1,0.6,0.1,0.9,0.1
	c0.2,0,0.4,0.1,0.5,0.4c0.1,0.4,0.4,1,0.5,1.1c0.7,1.6,1,3.3,1.1,5.1c0,0.2-0.1,0.5-0.2,0.7c-0.3,0.3-0.6,0.7-0.8,1.1
	c-0.5,1-1,2.2-1.7,3.1c-0.4,0.4-0.8,0.8-1,1.4c-0.1,0.4-0.1,0.8-0.1,1.2c0,0.1-0.3,0.1-0.4,0.1c-0.6-0.9-1-1.8-1.2-2.9
	c-0.1-0.7-0.3-1.5-0.5-2.2c-0.2-0.7-0.7-1.4-1.3-1.8c-0.7-0.4-1.5-0.3-2.4-0.4c-0.8,0-1.7-0.1-2.2-0.8c-0.2-0.3-0.4-0.7-0.4-1
	c-0.4-1.9,0.7-4,2.4-4.8c0.2-0.1,0.4-0.2,0.7-0.4c0.4-0.4,0.7-1,0.5-1.5c0-0.1-0.2-0.2-0.3-0.1c-0.4,0.1-0.9,0.3-1.2,0.5
	c-0.2,0.1-0.4-0.1-0.4-0.2c0-0.7,0.1-1.5,0.3-2.2c0.2-0.8,0.4-1.7,0.1-2.4c-0.1-0.1-0.3-0.3-0.4-0.3c-0.7,0-1.3,0-2.1,0
	c-0.1,0-0.1-0.1-0.1-0.1c0.4-0.2,0.7-0.5,1-0.8C-24.9-25-24.7-25.1-24.6-25.1z M-32.1-24.9c0.1-0.1,0.3,0,0.4,0.1
	c0.2,0.4,0.4,0.7,0.6,1.2c0.4,1,0.6,2,0.1,2.9c-0.5,1-1.7,1.5-2.6,2c-2,1-3.7,2.6-4.9,4.4c-0.1,0.1-0.1,0.2-0.2,0.2
	c-0.1,0.1-0.3,0-0.4-0.1c-0.2-0.1-0.4-0.3-0.6-0.5c-0.1-0.1-0.3,0.1-0.3,0.2c-0.3,1,0.2,2.1,1.1,2.6c0.1,0.1,0.3,0.1,0.4,0.3
	c0.3,0.4,0,0.9,0.1,1.3c0.1,0.6,0.8,1,1.5,0.9s1.2-0.4,1.8-0.6c1.3-0.4,2.9-0.3,4,0.5c0.6,0.4,1.1,1,1.7,1.3
	c0.5,0.4,1.2,0.7,1.8,0.6c0.1,0,0.3,0.1,0.4,0.1c0.2,0.6,0,1.3-0.4,1.8c-0.4,0.6-1.1,1-1.6,1.5c-1.2,1.4-1.5,3.5-2.6,5.1
	c-0.2,0.3-0.4,0.6-0.6,1c-0.2,0.5-0.1,1-0.1,1.5c0,0.1-0.1,0.2-0.1,0.1c-0.2-0.1-0.5-0.1-0.7-0.3c-0.1-0.1-0.3-0.2-0.3-0.4
	c-0.4-2.1-1.1-4.2-2.1-6.1c-0.4-0.7-0.9-1.5-1.6-2c-0.2-0.1-0.4-0.3-0.5-0.5c-0.1-0.1,0-0.4,0-0.5c0.3-2-0.7-4-2.3-5.2
	c-0.3-0.2-0.6-0.4-0.7-0.7s-0.1-0.7-0.3-1c-0.1-0.3-0.7-0.7-1-0.9c-0.1-0.1-0.1-0.2-0.1-0.4C-41.3-19.3-37.2-23.5-32.1-24.9z"/>
<path class="st4" d="M47,26.6h-4.3v-8c0-0.6-0.5-1.2-1.2-1.2H26.2v-6.8h4.3c0.6,0,1.2-0.5,1.2-1.2V2.1c0-0.6-0.5-1.2-1.2-1.2h-11
	c-0.6,0-1.2,0.5-1.2,1.2v7.3c0,0.6,0.5,1.2,1.2,1.2h4.3v6.8H8.5c-0.6,0-1.2,0.5-1.2,1.2v8H3c-0.6,0-1.2,0.5-1.2,1.2v7.3
	c0,0.6,0.5,1.2,1.2,1.2h11c0.6,0,1.2-0.5,1.2-1.2v-7.3c0-0.6-0.5-1.2-1.2-1.2H9.7v-6.8h14.1v6.8h-4.3c-0.6,0-1.2,0.5-1.2,1.2v7.3
	c0,0.6,0.5,1.2,1.2,1.2h11c0.6,0,1.2-0.5,1.2-1.2v-7.3c0-0.6-0.5-1.2-1.2-1.2h-4.3v-6.8h14.1v6.8H36c-0.6,0-1.2,0.5-1.2,1.2v7.3
	c0,0.6,0.5,1.2,1.2,1.2h11c0.6,0,1.2-0.5,1.2-1.2v-7.3C48.2,27.1,47.6,26.6,47,26.6z"/>
</svg>
