<?xml version="1.0" encoding="utf-8"?>
<!-- Generator: Adobe Illustrator 23.0.2, SVG Export Plug-In . SVG Version: 6.00 Build 0)  -->
<svg version="1.1" id="Layer_1" xmlns="http://www.w3.org/2000/svg" xmlns:xlink="http://www.w3.org/1999/xlink" x="0px" y="0px"
	 viewBox="0 0 40.5 33.1" style="enable-background:new 0 0 40.5 33.1;" xml:space="preserve">
<style type="text/css">
	.st0{fill:#83B633;}
	.st1{fill:none;stroke:#000333;stroke-width:1.5;stroke-linecap:round;}
	.st2{fill-rule:evenodd;clip-rule:evenodd;fill:#FFFFFF;}
</style>
<circle class="st0" cx="31.8" cy="20.2" r="0.9"/>
<title>apm-icon</title>
<rect x="10.5" y="2.6" class="st1" width="11.5" height="6.9"/>
<rect x="2.2" y="18.8" class="st1" width="11.5" height="6.9"/>
<rect x="19.3" y="18.8" class="st1" width="11.5" height="6.9"/>
<circle class="st0" cx="29.1" cy="25.2" r="0.9"/>
<circle class="st0" cx="34.5" cy="25.2" r="0.9"/>
<line class="st1" x1="16.2" y1="9.5" x2="16.2" y2="13.1"/>
<polyline class="st1" points="24.9,17.8 24.9,13.8 7.5,13.8 7.5,17.8 "/>
<circle class="st0" cx="31.8" cy="24.3" r="8.2"/>
<g>
	<g>
		<path class="st2" d="M34,23.2c0-0.7-0.2-1.2-0.7-1.7c-0.5-0.5-1.1-0.7-1.7-0.7s-1.2,0.2-1.7,0.7c-0.5,0.5-0.7,1.1-0.7,1.7
			c0,0.7,0.2,1.2,0.7,1.7c0.5,0.5,1.1,0.7,1.7,0.7s1.2-0.2,1.7-0.7C33.8,24.4,34,23.9,34,23.2L34,23.2L34,23.2z M36.8,27.7
			c0,0.2-0.1,0.4-0.2,0.5s-0.3,0.2-0.5,0.2c-0.2,0-0.4-0.1-0.5-0.2l-1.9-1.9c-0.6,0.5-1.4,0.7-2.2,0.7c-0.5,0-1-0.1-1.5-0.3
			c-0.5-0.2-0.9-0.5-1.2-0.8c-0.3-0.3-0.6-0.8-0.8-1.2c-0.2-0.5-0.3-1-0.3-1.5c0-0.5,0.1-1,0.3-1.5c0.2-0.5,0.5-0.9,0.8-1.2
			c0.3-0.3,0.8-0.6,1.2-0.8c0.5-0.2,1-0.3,1.5-0.3s1,0.1,1.5,0.3c0.5,0.2,0.9,0.5,1.2,0.8c0.3,0.3,0.6,0.8,0.8,1.2
			c0.2,0.5,0.3,1,0.3,1.5c0,0.8-0.2,1.5-0.7,2.2l1.9,1.9C36.7,27.4,36.8,27.5,36.8,27.7L36.8,27.7L36.8,27.7z"/>
	</g>
</g>
</svg>
