<?xml version="1.0" encoding="utf-8"?>
<!-- Generator: Adobe Illustrator 23.0.2, SVG Export Plug-In . SVG Version: 6.00 Build 0)  -->
<svg version="1.1" id="Layer_1" xmlns="http://www.w3.org/2000/svg" xmlns:xlink="http://www.w3.org/1999/xlink" x="0px" y="0px"
	 viewBox="0 0 40.5 33.1" style="enable-background:new 0 0 40.5 33.1;" xml:space="preserve">
<style type="text/css">
	.st0{fill:#83B633;}
	.st1{fill:none;stroke:#000333;stroke-width:1.5;stroke-linecap:round;}
	.st2{fill:#000333;}
	.st3{fill:none;stroke:#83B633;stroke-width:1.5;stroke-linecap:round;stroke-linejoin:round;}
	.st4{fill:#FFFFFF;}
</style>
<circle class="st0" cx="31.8" cy="20.2" r="0.9"/>
<title>apm-icon</title>
<rect x="1.7" y="1.9" class="st1" width="26.7" height="26"/>
<line class="st1" x1="1.7" y1="7.8" x2="28.4" y2="7.8"/>
<circle class="st2" cx="4.5" cy="4.7" r="1"/>
<circle class="st2" cx="8" cy="4.7" r="1"/>
<circle class="st2" cx="11.5" cy="4.7" r="1"/>
<circle class="st0" cx="31.8" cy="24.3" r="8.2"/>
<circle class="st0" cx="29.1" cy="25.2" r="0.9"/>
<circle class="st0" cx="34.5" cy="25.2" r="0.9"/>
<path class="st3" d="M8,19.8c0-4.1,3.3-7.3,7.3-7.3s7.3,3.3,7.3,7.3"/>
<line class="st3" x1="10.4" y1="14.6" x2="11.2" y2="15.6"/>
<line class="st3" x1="15.4" y1="12.8" x2="15.4" y2="13.9"/>
<line class="st3" x1="21.3" y1="15.9" x2="20.7" y2="16.5"/>
<line class="st3" x1="15" y1="19.8" x2="17.8" y2="15.2"/>
<circle class="st0" cx="15.1" cy="19.7" r="1"/>
<g>
	<path class="st4" d="M31.8,19.3c-1.4,0-2.5,1.1-2.5,2.5s1.1,2.5,2.5,2.5s2.5-1.1,2.5-2.5c0,0,0,0,0,0
		C34.2,20.5,33.1,19.4,31.8,19.3z"/>
	<path class="st4" d="M35.6,28H28c0.1-2.1,1.9-3.7,4-3.5C33.9,24.6,35.4,26.1,35.6,28L35.6,28z"/>
</g>
</svg>
