<?xml version="1.0" encoding="UTF-8"?>
<svg width="43px" height="77px" viewBox="0 0 43 77" version="1.1" xmlns="http://www.w3.org/2000/svg" xmlns:xlink="http://www.w3.org/1999/xlink">
    <!-- Generator: Sketch 54.1 (76490) - https://sketchapp.com -->
    <title>right-arrow</title>
    <desc>Created with Sketch.</desc>
    <g id="Page-1" stroke="none" stroke-width="1" fill="none" fill-rule="evenodd">
        <g id="right-arrow" transform="translate(21.000000, 38.500000) scale(-1, 1) rotate(-270.000000) translate(-21.000000, -38.500000) translate(-13.500000, 21.500000)" fill="#4A4A4A" fill-rule="nonzero" stroke="#4A4A4A" stroke-width="10">
            <g id="Group" transform="translate(0.732959, 0.958871)">
                <path d="M34.3863598,32.4957907 C35.1606604,32.4169229 35.8929283,32.1076489 36.4872584,31.6084744 L65.8508948,7.05032721 C66.907728,6.16779485 67.4102141,4.79234393 67.1690714,3.44209358 C66.9279287,2.09184322 65.9797926,0.971928618 64.6818167,0.504210813 C63.3838408,0.0364930082 61.9332187,0.292029478 60.8763857,1.17456209 L33.9999961,23.6462651 L7.12361432,1.17456209 C6.0667813,0.292029588 4.61615923,0.0364931984 3.31818343,0.504211017 C2.02020763,0.971928835 1.07207152,2.09184339 0.830928832,3.44209368 C0.589786141,4.79234397 1.09227218,6.16779484 2.1491053,7.05032721 L31.5127416,31.6084744 C32.3105264,32.277759 33.3471117,32.597836 34.3863598,32.4957907 L34.3863598,32.4957907 Z" id="Path"></path>
            </g>
        </g>
    </g>
</svg>