<svg id="Layer_1" data-name="Layer 1" xmlns="http://www.w3.org/2000/svg" viewBox="0 0 50 36.23"><defs><style>.cls-1{fill:#fff;}</style></defs><title>server-icon-01</title><circle class="cls-1" cx="37.54" cy="18.82" r="0.7"/><path class="cls-1" d="M43.11,13.94H6.89a.7.7,0,0,0-.7.7V23a.69.69,0,0,0,.7.69H43.11a.69.69,0,0,0,.7-.69V14.64A.7.7,0,0,0,43.11,13.94ZM26.39,19.51H11.07a.7.7,0,1,1,0-1.39H26.39a.7.7,0,1,1,0,1.39Zm11.15,1.4a2.09,2.09,0,1,1,2.09-2.09A2.1,2.1,0,0,1,37.54,20.91Z"/><circle class="cls-1" cx="37.54" cy="6.28" r="0.7"/><path class="cls-1" d="M43.11,1.4H6.89a.7.7,0,0,0-.7.7v8.36a.69.69,0,0,0,.7.69H43.11a.69.69,0,0,0,.7-.69V2.1A.7.7,0,0,0,43.11,1.4ZM26.39,7H11.07a.7.7,0,1,1,0-1.39H26.39a.7.7,0,1,1,0,1.39Zm11.15,1.4a2.09,2.09,0,1,1,2.09-2.09A2.1,2.1,0,0,1,37.54,8.37Z"/><circle class="cls-1" cx="37.54" cy="31.36" r="0.7"/><path class="cls-1" d="M43.11,26.48H6.89a.7.7,0,0,0-.7.7v8.36a.69.69,0,0,0,.7.69H43.11a.69.69,0,0,0,.7-.69V27.18A.7.7,0,0,0,43.11,26.48ZM26.39,32.05H11.07a.7.7,0,1,1,0-1.39H26.39a.7.7,0,1,1,0,1.39Zm11.15,1.4a2.09,2.09,0,1,1,2.09-2.09A2.1,2.1,0,0,1,37.54,33.45Z"/></svg>