<?xml version="1.0" encoding="utf-8"?>
<!-- Generator: Adobe Illustrator 23.0.2, SVG Export Plug-In . SVG Version: 6.00 Build 0)  -->
<svg version="1.1" id="Layer_1" xmlns="http://www.w3.org/2000/svg" xmlns:xlink="http://www.w3.org/1999/xlink" x="0px" y="0px"
	 viewBox="0 0 40.5 33.1" style="enable-background:new 0 0 40.5 33.1;" xml:space="preserve">
<style type="text/css">
	.st0{fill:none;stroke:#000333;stroke-width:1.5;stroke-linecap:round;}
	.st1{fill:#000333;}
	.st2{fill:#83B633;}
	.st3{fill:none;stroke:#83B633;stroke-width:1.5;stroke-linecap:round;stroke-linejoin:round;}
	.st4{fill:#FFFFFF;stroke:#FFFFFF;stroke-width:0.25;stroke-miterlimit:10;}
	.st5{fill:none;stroke:#83B633;stroke-linecap:round;stroke-miterlimit:10;}
</style>
<title>apm-icon</title>
<rect x="1.7" y="1.9" class="st0" width="26.7" height="26"/>
<line class="st0" x1="1.7" y1="7.8" x2="28.4" y2="7.8"/>
<circle class="st1" cx="4.5" cy="4.7" r="1"/>
<circle class="st1" cx="8" cy="4.7" r="1"/>
<circle class="st1" cx="11.5" cy="4.7" r="1"/>
<circle class="st2" cx="31.8" cy="24.3" r="8.2"/>
<line class="st3" x1="5" y1="12.9" x2="19.1" y2="12.9"/>
<line class="st0" x1="5" y1="16.8" x2="19.1" y2="16.8"/>
<path class="st4" d="M36.6,22.4c0.5,0.2,0.8,0.6,0.8,1.1v0.4c0,0.5-0.3,0.9-0.8,1.1L36,25.2v-3L36.6,22.4z"/>
<polygon class="st4" points="30.5,22.3 35.4,19.8 35.4,27.8 30.5,25.3 "/>
<path class="st4" d="M26.7,24v-0.5c0-0.7,0.5-1.2,1.2-1.2H30v2.8h-2.1C27.2,25.2,26.7,24.7,26.7,24z"/>
<path class="st4" d="M28.7,27.6h-0.2c-0.1,0-0.2-0.1-0.2-0.2v-2.3c0-0.1,0.1-0.2,0.2-0.2h0.2c0.1,0,0.2,0.1,0.2,0.2v2.3
	C28.9,27.5,28.8,27.6,28.7,27.6z"/>
<g>
	<path class="st5" d="M24.9,12.5l-1.1-1.1c0,0-0.1,0-0.2,0l-1.1,1.1"/>
	<path class="st5" d="M23.8,14.4v-3"/>
</g>
</svg>
