<?xml version="1.0" encoding="utf-8"?>
<!-- Generator: Adobe Illustrator 23.0.2, SVG Export Plug-In . SVG Version: 6.00 Build 0)  -->
<svg version="1.1" id="Layer_1" xmlns="http://www.w3.org/2000/svg" xmlns:xlink="http://www.w3.org/1999/xlink" x="0px" y="0px"
	 viewBox="0 0 40.5 33.1" style="enable-background:new 0 0 40.5 33.1;" xml:space="preserve">
<style type="text/css">
	.st0{fill:#83B633;}
	.st1{fill:none;stroke:#000333;stroke-width:1.5;stroke-linecap:round;}
	.st2{fill:#000333;}
	.st3{fill:none;stroke:#83B633;stroke-width:1.5;stroke-linecap:round;stroke-linejoin:round;}
	.st4{fill:#FFFFFF;}
</style>
<circle class="st0" cx="31.8" cy="20.2" r="0.9"/>
<title>apm-icon</title>
<rect x="1.7" y="1.9" class="st1" width="26.7" height="26"/>
<line class="st1" x1="1.7" y1="7.8" x2="28.4" y2="7.8"/>
<circle class="st2" cx="4.5" cy="4.7" r="1"/>
<circle class="st2" cx="8" cy="4.7" r="1"/>
<circle class="st2" cx="11.5" cy="4.7" r="1"/>
<circle class="st0" cx="31.8" cy="24.3" r="8.2"/>
<path class="st3" d="M16.5,21.1c2.2,0,3.9-1.8,3.9-3.9s-1.8-3.9-3.9-3.9l0,0"/>
<polyline class="st3" points="16.3,14.5 15.4,12.9 17.5,11.9 "/>
<path class="st3" d="M13.2,13.1c-2.2,0-3.9,1.8-3.9,3.9s1.7,4,3.9,4l0,0"/>
<polyline class="st3" points="13,19.4 14,21 11.8,22 "/>
<path class="st4" d="M34.8,27.8h-6.1c-0.8,0-1.5-0.7-1.5-1.5v-2.1c0-0.8,0.7-1.5,1.5-1.5h6.1c0.8,0,1.5,0.7,1.5,1.5v2.1
	C36.3,27.1,35.7,27.8,34.8,27.8z"/>
<circle class="st0" cx="28.8" cy="25.2" r="1"/>
<circle class="st4" cx="31.8" cy="19.8" r="1.2"/>
<circle class="st4" cx="37.6" cy="25.5" r="1.2"/>
<circle class="st4" cx="26" cy="25.5" r="1.2"/>
<circle class="st0" cx="34.8" cy="25.2" r="1"/>
<path class="st4" d="M31.8,23.2L31.8,23.2c-0.4,0-0.7-0.3-0.7-0.7v-2c0-0.4,0.3-0.7,0.7-0.7h0.1c0.4,0,0.7,0.3,0.7,0.7v2
	C32.5,22.8,32.2,23.2,31.8,23.2z"/>
<circle class="st0" cx="26" cy="25.5" r="0.7"/>
<circle class="st0" cx="37.6" cy="25.5" r="0.7"/>
<circle class="st0" cx="31.8" cy="19.8" r="0.7"/>
</svg>
